<svg t="1572252990907" class="icon" viewBox="0 0 1024 1024" version="1.1" xmlns="http://www.w3.org/2000/svg" p-id="8206" width="200" height="200"><path d="M 649.42 512.58 c 64.58 -44.38 107 -118.76 107 -202.88 c 0 -135.63 -110.35 -246 -246 -246 s -246 110.35 -246 246 c 0 84.59 42.9 159.33 108.07 203.62 C 217 570.22 106 719.51 106 894.72 q 0 12.16 0.71 24.15 c 0.1 1.57 0.2 3.13 0.31 4.7 a 40 40 0 0 0 79.79 -4.89 c 0 -0.62 0 -1.23 -0.05 -1.84 v -0.89 c -0.46 -7 -0.71 -14.09 -0.71 -21.23 c 0 -137.49 85.13 -255.1 205.55 -303 a 128.39 128.39 0 0 0 53.75 62.68 L 413 768.26 a 31.71 31.71 0 0 0 5 27.36 l 65.51 88.25 a 31.46 31.46 0 0 0 50.49 0 l 65.55 -88.29 a 31.18 31.18 0 0 0 5.08 -27.12 l -31.07 -112.91 a 128.47 128.47 0 0 0 56.17 -64.9 C 751.59 637.86 838 756.19 838 894.72 c 0 6.62 -0.22 13.18 -0.61 19.7 c -0.06 1 -0.12 2.07 -0.2 3.1 v 1.14 a 40 40 0 0 0 79.81 4.42 c 0.07 -1.13 0.15 -2.26 0.22 -3.39 q 0.75 -12.39 0.76 -25 C 918 718.73 806 568.9 649.42 512.58 Z m -139 -368.86 c 91.54 0 166 74.47 166 166 s -74.46 166 -166 166 s -166 -74.46 -166 -166 s 74.47 -166 166.01 -166 Z m -1.59 657.7 L 479 761.19 l 22.7 -80.08 h 15 l 22.07 80 Z m 1.59 -209.23 a 48 48 0 0 1 -39.61 -20.89 a 328.23 328.23 0 0 1 79.44 -0.33 a 47.94 47.94 0 0 1 -39.82 21.22 Z" fill="#bfbfbf" p-id="8207"></path></svg>