<svg t="1571368014584" class="icon" viewBox="0 0 1024 1024" version="1.1" xmlns="http://www.w3.org/2000/svg" p-id="2186" width="200" height="200"><path d="M742.4 938.666667A657.92 657.92 0 0 1 85.333333 281.6 196.266667 196.266667 0 0 1 281.6 85.333333a168.106667 168.106667 0 0 1 32.853333 2.986667 161.706667 161.706667 0 0 1 30.72 7.68 42.666667 42.666667 0 0 1 27.733334 32l58.453333 256a42.666667 42.666667 0 0 1-11.093333 39.253333c-5.546667 5.973333-5.973333 6.4-58.453334 33.706667a422.826667 422.826667 0 0 0 207.786667 208.64c27.733333-52.906667 28.16-53.333333 34.133333-58.88a42.666667 42.666667 0 0 1 39.253334-11.093333l256 58.453333a42.666667 42.666667 0 0 1 30.72 27.733333 185.173333 185.173333 0 0 1 8.106666 31.146667 203.52 203.52 0 0 1 2.56 32.426667A196.266667 196.266667 0 0 1 742.4 938.666667z" p-id="2187" fill="#bfbfbf"></path></svg>