<svg t="1574063838183" class="icon" viewBox="0 0 1024 1024" version="1.1" xmlns="http://www.w3.org/2000/svg" p-id="3373" width="200" height="200"><path d="M787.2 825.6l-115.2 64c-6.4 6.4-19.2 0-19.2-12.8l0-153.6c0-6.4 0-6.4 6.4-12.8l115.2-64c6.4-6.4 19.2 0 19.2 12.8l0 153.6C793.6 819.2 793.6 825.6 787.2 825.6z" p-id="3374" fill="#bfbfbf"></path><path d="M787.2 620.8l-115.2 64c-6.4 6.4-19.2 0-19.2-12.8L652.8 518.4c0-6.4 0-6.4 6.4-12.8l115.2-64c6.4-6.4 19.2 0 19.2 12.8l0 153.6C793.6 614.4 793.6 620.8 787.2 620.8z" p-id="3375" fill="#bfbfbf"></path><path d="M640 352 505.6 409.6c-6.4 0-6.4 12.8 0 12.8L640 499.2c0 0 6.4 0 6.4 0l134.4-76.8c6.4 0 6.4-12.8 0-12.8L640 352C640 352 640 352 640 352z" p-id="3376" fill="#bfbfbf"></path><path d="M620.8 512 512 448C499.2 441.6 492.8 448 492.8 454.4l0 0L416 499.2C409.6 499.2 409.6 505.6 409.6 512l0 153.6c0 6.4 12.8 12.8 19.2 12.8L512 627.2l102.4 57.6c6.4 6.4 19.2 0 19.2-6.4L633.6 518.4C627.2 518.4 627.2 512 620.8 512z" p-id="3377" fill="#bfbfbf"></path><path d="M620.8 716.8l-115.2-64c-6.4-6.4-19.2 0-19.2 6.4L409.6 704c-6.4 0-6.4 6.4-6.4 12.8l0 153.6c0 6.4 12.8 12.8 19.2 12.8L505.6 832l102.4 57.6c6.4 6.4 19.2 0 19.2-6.4l0-153.6C627.2 723.2 627.2 716.8 620.8 716.8z" p-id="3378" fill="#bfbfbf"></path><path d="M243.2 806.4l115.2 64c6.4 6.4 19.2 0 19.2-6.4l0-153.6c0-6.4 0-6.4-6.4-6.4L256 633.6c-6.4-6.4-19.2 0-19.2 6.4l0 153.6C236.8 806.4 243.2 806.4 243.2 806.4z" p-id="3379" fill="#bfbfbf"></path><path d="M243.2 608l115.2 64c6.4 6.4 19.2 0 19.2-6.4L377.6 505.6c0-6.4 0-6.4-6.4-6.4L256 428.8c-6.4-6.4-19.2 0-19.2 6.4l0 153.6C243.2 601.6 243.2 601.6 243.2 608z" p-id="3380" fill="#bfbfbf"></path><path d="M243.2 396.8l115.2 64c6.4 6.4 19.2 0 19.2-6.4L377.6 300.8c0-6.4 0-6.4-6.4-6.4L256 224c-6.4-6.4-19.2 0-19.2 6.4l0 153.6C243.2 390.4 243.2 396.8 243.2 396.8z" p-id="3381" fill="#bfbfbf"></path><path d="M390.4 128 256 185.6c-6.4 0-6.4 12.8 0 12.8l134.4 76.8c0 0 6.4 0 6.4 0l134.4-76.8c6.4 0 6.4-12.8 0-12.8L390.4 128C390.4 128 390.4 128 390.4 128z" p-id="3382" fill="#bfbfbf"></path><path d="M537.6 396.8l-115.2 64c-6.4 6.4-19.2 0-19.2-12.8L403.2 300.8c0-6.4 0-6.4 6.4-12.8l115.2-64c6.4-6.4 19.2 0 19.2 12.8l0 153.6C544 390.4 544 396.8 537.6 396.8z" p-id="3383" fill="#bfbfbf"></path></svg>