<svg t="1571368241201" class="icon" viewBox="0 0 1024 1024" version="1.1" xmlns="http://www.w3.org/2000/svg" p-id="4874" width="200" height="200"><path d="M911.753846 387.938462H112.246154c-17.723077 0-31.507692 13.784615-31.507692 31.507692v462.769231c0 51.2 41.353846 92.553846 92.553846 92.553846h677.415384c51.2 0 92.553846-41.353846 92.553846-92.553846V419.446154c0-17.723077-13.784615-31.507692-31.507692-31.507692zM358.4 819.2c0 17.723077-13.784615 31.507692-31.507692 31.507692h-61.046154c-17.723077 0-31.507692-13.784615-31.507692-31.507692v-61.046154c0-17.723077 13.784615-31.507692 31.507692-31.507692h61.046154c17.723077 0 31.507692 13.784615 31.507692 31.507692v61.046154z m214.646154 0c0 17.723077-13.784615 31.507692-31.507692 31.507692h-61.046154c-17.723077 0-31.507692-13.784615-31.507693-31.507692v-61.046154c0-17.723077 13.784615-31.507692 31.507693-31.507692h61.046154c17.723077 0 31.507692 13.784615 31.507692 31.507692v61.046154z m0-214.646154c0 17.723077-13.784615 31.507692-31.507692 31.507692h-61.046154c-17.723077 0-31.507692-13.784615-31.507693-31.507692v-61.046154c0-17.723077 13.784615-31.507692 31.507693-31.507692h61.046154c17.723077 0 31.507692 13.784615 31.507692 31.507692v61.046154z m216.615384 0c0 17.723077-13.784615 31.507692-31.507692 31.507692h-61.046154c-17.723077 0-31.507692-13.784615-31.507692-31.507692v-61.046154c0-17.723077 13.784615-31.507692 31.507692-31.507692h61.046154c17.723077 0 31.507692 13.784615 31.507692 31.507692v61.046154z m61.046154-462.769231h-76.8V110.276923c0-33.476923-27.569231-61.046154-61.046154-61.046154-33.476923 0-61.046154 27.569231-61.046153 61.046154v31.507692H374.153846V110.276923c0-33.476923-27.569231-61.046154-61.046154-61.046154s-61.046154 27.569231-61.046154 61.046154v31.507692h-78.76923c-51.2 0-92.553846 41.353846-92.553846 92.553847v31.507692c0 17.723077 13.784615 31.507692 31.507692 31.507692h801.476923c17.723077 0 31.507692-13.784615 31.507692-31.507692v-31.507692c-1.969231-51.2-43.323077-92.553846-94.523077-92.553847z" p-id="4875" fill="#bfbfbf"></path></svg>