<svg t="1574063925830" class="icon" viewBox="0 0 1024 1024" version="1.1" xmlns="http://www.w3.org/2000/svg" p-id="4450" width="200" height="200"><path d="M920.890076 203.910317c170.154701 225.788325 125.033442 546.779548-100.800391 716.979757-225.788325 170.154701-546.779548 125.033442-716.979757-100.800391-170.154701-225.788325-125.033442-546.779548 100.800391-716.979757 225.788325-170.154701 546.779548-125.033442 716.979757 100.800391z m-145.398307 109.537942a147.901251 147.901251 0 0 0-207.130013-29.125169l-118.09346 89.013799 178.004844 236.232429 118.09346-88.991045a147.901251 147.901251 0 0 0 29.125169-207.130014z m-508.825811 383.405551a147.901251 147.901251 0 0 0 207.130013 29.125169l118.116215-89.013799L413.930096 400.732751l-118.116215 89.013799a147.901251 147.901251 0 0 0-29.125169 207.130014z" p-id="4451" fill="#bfbfbf"></path><path d="M406.73982 451.701798l-89.036553 67.124414a111.494789 111.494789 0 1 0 134.180565 178.073106l89.059307-67.10166-134.203319-178.09586z" p-id="4452" fill="#bfbfbf"></path></svg>