<svg t="1573971416751" class="icon" viewBox="0 0 1024 1024" version="1.1" xmlns="http://www.w3.org/2000/svg" p-id="4945" width="200" height="200"><path d="M843.19 448H767v128h3c17.6 0 32 14.4 32 32s-14.4 32-32 32H254c-17.6 0-32-14.4-32-32s14.4-32 32-32h2V448h-75.19c-33.77 0-58.86 26.89-51.53 55.23l117.16 453.29c0.53 2.03 2.62 3.48 5.05 3.48h525.18l118.06-456.77c7.32-28.34-17.77-55.23-51.54-55.23zM737 864c0 17.6-14.4 32-32 32H319c-17.6 0-32-14.4-32-32s14.4-32 32-32h386c17.6 0 32 14.4 32 32z m30-128c0 17.6-14.4 32-32 32H289c-17.6 0-32-14.4-32-32s14.4-32 32-32h446c17.6 0 32 14.4 32 32z" p-id="4946" fill="#8a8a8a"></path><path d="M256 576H128c-35.2 0-64-28.8-64-64s28.8-64 64-64h128c35.2 0 64 28.8 64 64s-28.8 64-64 64zM896 576H768c-35.2 0-64-28.8-64-64s28.8-64 64-64h128c35.2 0 64 28.8 64 64s-28.8 64-64 64z" p-id="4947" fill="#8a8a8a"></path><path d="M896 140.25c-3.9-4.76-8.3-9.03-12.88-13.05-4.59-4-9.41-7.69-14.4-11.07a151.419 151.419 0 0 0-31.74-16.39c-11.06-4.14-22.49-6.88-33.99-8.3-11.5-1.42-23.06-1.5-34.47-0.46-11.11 1.49-21.91 4.6-32.25 8.7-10.34 4.13-20.2 9.31-29.5 15.33-18.62 12.01-34.94 27.16-48.95 44.02-14.01 16.9-25.76 35.53-35.43 55.19-9.72 19.63-17.34 40.3-23.34 61.45-11.97 42.36-17.14 86.77-17.94 131.39l-138.24-22.14c7.43-26.11 16.17-51.94 26.57-77.2 10.4-25.26 22.46-49.95 36.49-73.59 14.04-23.62 29.97-46.24 48.16-66.98 18.12-20.77 38.51-39.67 60.95-55.63 22.44-15.93 47-28.92 73.04-37.35 13-4.23 26.36-7.27 39.88-8.91 13.5-1.63 27.2-1.83 40.63-0.23 13.12 1.13 26.1 3.55 38.57 7.4 12.47 3.85 24.41 9.09 35.44 15.62a160.67 160.67 0 0 1 30.21 23.05c4.51 4.38 8.74 9 12.64 13.85 3.9 4.87 7.54 9.92 10.55 15.3z" p-id="4948" fill="#8a8a8a"></path><path d="M717.85 401.26L314.8 336.7l169.26 233.75z" p-id="4949" fill="#8a8a8a"></path></svg>