<svg t="1571309797405" class="icon" viewBox="0 0 1105 1024" version="1.1" xmlns="http://www.w3.org/2000/svg" p-id="3233" width="200" height="200"><path d="M699.314995 606.208a436.51072 436.51072 0 0 0-110.67392-60.2112c83.27168-53.37088 134.10304-148.76672 134.144-251.57632C722.785075 132.05504 597.693235 0 444.011315 0 290.206515 0 165.073715 132.05504 165.073715 294.62528c0 55.0912 14.62272 109.07648 42.31168 155.81184a288.5632 288.5632 0 0 0 92.9792 96.4608c-40.1408 14.49984-78.06976 35.0208-112.64 60.90752a465.42848 465.42848 0 0 0-99.1232 101.5808A480.4608 480.4608 0 0 0 0.004915 989.5936c0 18.92352 14.70464 34.44736 32.60416 34.44736l821.37088-1.35168c17.94048 0 32.60416-15.5648 32.60416-34.4064a479.6416 479.6416 0 0 0-88.43264-280.28928 450.1504 450.1504 0 0 0-98.83648-101.74464z m337.1008 58.40896c-42.06592-63.77472-98.5088-111.90272-164.16768-139.264a246.33344 246.33344 0 0 0 71.02464-83.84512 275.33312 275.33312 0 0 0 31.37536-128.2048c0-140.4928-103.05536-254.68928-229.53984-254.68928-17.89952 0-32.60416 15.5648-32.60416 34.4064 0 19.00544 18.2272 43.4176 32.31744 55.296 64.22528 55.37792 105.59488 210.16576 30.3104 300.48256-33.71008 40.38656-63.8976 46.44864-62.6688 84.86912v0.24576c0 18.92352 16.46592 26.4192 32.64512 34.4064 122.0608 61.27616 192.38912 178.176 220.11904 341.27872 6.5536 39.03488 68.56704 27.27936 108.1344 25.88672a33.95584 33.95584 0 0 0 32.5632-34.4064c-0.2048-85.6064-24.1664-167.23968-69.50912-236.46208z" fill="#bfbfbf" p-id="3234"></path></svg>